HIERARCHY
ROOT Hips
{
	OFFSET	0.00	0.00	0.00
	CHANNELS 6 Xposition Yposition Zposition Zrotation Xrotation Yrotation
	JOINT LeftUpLeg
	{
		OFFSET	 0.126116	-0.065224	 0.014019
		CHANNELS 3 Zrotation Xrotation Yrotation
		JOINT LeftLeg
		{
			OFFSET	 0.000000	 0.569914	 0.000000
			CHANNELS 3 Zrotation Xrotation Yrotation
			JOINT LeftFoot
			{
				OFFSET	 0.000000	 0.544423	 0.000000
				CHANNELS 3 Zrotation Xrotation Yrotation
				JOINT LeftToeBase
				{
					OFFSET	 0.000000	 0.207117	 0.000000
					CHANNELS 3 Zrotation Xrotation Yrotation
					End Site
					{
						OFFSET	 0.000000	 0.207117	 0.000000
					}
				}
			}
		}
	}
	JOINT RightUpLeg
	{
		OFFSET	-0.124023	-0.065224	 0.008373
		CHANNELS 3 Zrotation Xrotation Yrotation
		JOINT RightLeg
		{
			OFFSET	 0.000000	 0.570047	 0.000000
			CHANNELS 3 Zrotation Xrotation Yrotation
			JOINT RightFoot
			{
				OFFSET	 0.000000	 0.544354	 0.000000
				CHANNELS 3 Zrotation Xrotation Yrotation
				JOINT RightToeBase
				{
					OFFSET	 0.000000	 0.207540	 0.000000
					CHANNELS 3 Zrotation Xrotation Yrotation
					End Site
					{
						OFFSET	 0.000000	 0.207540	 0.000000
					}
				}
			}
		}
	}
	JOINT Spine
	{
		OFFSET	 0.000184	 0.117403	 0.007763
		CHANNELS 3 Zrotation Xrotation Yrotation
		JOINT Spine1
		{
			OFFSET	 0.000000	 0.137269	 0.000000
			CHANNELS 3 Zrotation Xrotation Yrotation
			JOINT Spine2
			{
				OFFSET	 0.000000	 0.156879	 0.000000
				CHANNELS 3 Zrotation Xrotation Yrotation
				JOINT LeftShoulder
				{
					OFFSET	 0.080501	 0.160143	 0.002496
					CHANNELS 3 Zrotation Xrotation Yrotation
					JOINT LeftArm
					{
						OFFSET	 0.000000	 0.164363	 0.000000
						CHANNELS 3 Zrotation Xrotation Yrotation
						JOINT LeftForeArm
						{
							OFFSET	 0.000000	 0.364576	 0.000000
							CHANNELS 3 Zrotation Xrotation Yrotation
							JOINT LeftHand
							{
								OFFSET	 0.000000	 0.360812	 0.000000
								CHANNELS 3 Zrotation Xrotation Yrotation
								JOINT LeftHandIndex1
								{
									OFFSET	 0.000000	 0.086006	 0.000000
									CHANNELS 3 Zrotation Xrotation Yrotation
									JOINT LeftHandIndex2
									{
										OFFSET	 0.000000	 0.047237	 0.000000
										CHANNELS 3 Zrotation Xrotation Yrotation
										JOINT LeftHandIndex3
										{
											OFFSET	-0.004284	 0.038165	 0.000551
											CHANNELS 3 Zrotation Xrotation Yrotation
											End Site
											{
												OFFSET	-0.004284	 0.038165	 0.000551
											}
										}
									}
								}
							}
						}
					}
				}
				JOINT Neck
				{
					OFFSET	 0.000000	 0.176489	 0.000000
					CHANNELS 3 Zrotation Xrotation Yrotation
					JOINT Head
					{
						OFFSET	 0.000000	 0.077941	 0.001747
						CHANNELS 3 Zrotation Xrotation Yrotation
						End Site
						{
							OFFSET	 0.000000	 0.077941	 0.001747
						}
					}
				}
				JOINT RightShoulder
				{
					OFFSET	-0.080363	 0.159706	-0.000306
					CHANNELS 3 Zrotation Xrotation Yrotation
					JOINT RightArm
					{
						OFFSET	 0.000000	 0.164196	 0.000000
						CHANNELS 3 Zrotation Xrotation Yrotation
						JOINT RightForeArm
						{
							OFFSET	 0.000000	 0.365611	 0.000000
							CHANNELS 3 Zrotation Xrotation Yrotation
							JOINT RightHand
							{
								OFFSET	 0.000000	 0.360648	 0.000000
								CHANNELS 3 Zrotation Xrotation Yrotation
								JOINT RightHandIndex1
								{
									OFFSET	 0.000000	 0.069977	 0.000000
									CHANNELS 3 Zrotation Xrotation Yrotation
									JOINT RightHandIndex2
									{
										OFFSET	 0.000000	 0.052305	 0.000000
										CHANNELS 3 Zrotation Xrotation Yrotation
										JOINT RightHandIndex3
										{
											OFFSET	 0.009002	 0.042196	 0.000782
											CHANNELS 3 Zrotation Xrotation Yrotation
											End Site
											{
												OFFSET	 0.009002	 0.042196	 0.000782
											}
										}
									}
								}
							}
						}
					}
				}
			}
		}
	}
}
MOTION
Frames:    12
Frame Time: 0.03333334
-0.009818	 1.233144	 0.010708	 3.124015	 0.458020	 172.190500	-158.852500	 13.307860	-27.778160	 5.988637	-21.399490	 3.263290	-12.503350	 63.637280	 4.599295	 1.162021	 26.689190	-2.659656	 174.707600	 9.710959	 19.283700	-2.407175	-29.002510	 7.869463	 13.743960	 76.753110	-10.026020	-1.288989	 28.372430	 2.710516	 2.011424	 6.167036	-8.105988	 7.198683	 5.894725	-4.549151	-6.038625	-4.989230	 15.185910	-113.195400	 6.483890	 92.935010	 19.085070	 45.675430	 4.938715	 9.507422	-0.489724	-0.043150	 1.442462	-19.347090	-22.997200	 0.561178	 8.652261	-0.355721	-5.949625	 13.577840	 1.517980	 4.985970	-3.513325	-0.334722	 3.185830	-6.825668	 0.871011	-1.248100	-5.932289	 7.231729	 123.459200	 10.373560	-96.383450	-7.716926	 42.771100	-2.047898	-5.037422	-0.198155	 0.049832	-23.546370	-8.757549	-56.793050	-2.307748	 4.845225	 0.896267	 12.530440	 22.792520	-5.133874	-8.499888	 13.014950	-0.519991
-0.010461	 1.233209	 0.011821	 2.974063	 0.084803	 170.541300	-158.459800	 13.268410	-29.807820	 6.113322	-21.802070	 2.628250	-13.940150	 63.711400	 6.238070	 1.160553	 26.669330	-2.659074	 174.687600	 10.512020	 18.587720	-2.408617	-29.210940	 7.185631	 10.250920	 76.543620	-6.562099	-1.287584	 28.353950	 2.709922	 2.893098	 5.582544	-11.754220	 6.708416	 6.711145	-4.421419	-5.542200	-6.545818	 15.371520	-112.555600	 6.574112	 93.001950	 17.911170	 46.810870	 6.692946	 11.276910	-0.504687	-2.354505	 1.165352	-25.320230	-23.963980	 1.057731	 7.109713	-0.347226	-5.943384	 13.924200	 1.555125	 5.010984	-2.962832	-0.321536	 3.167680	-6.839194	 0.975585	-1.244658	-6.399558	 7.993472	 123.030100	 10.443300	-96.338380	-6.660889	 43.188090	-2.301424	-6.519938	-0.198682	 2.371722	-30.041800	-11.214090	-54.986820	-2.487446	 5.407972	 0.889809	 12.642610	 24.277460	-5.495506	-8.509927	 14.230390	-0.596787
-0.011115	 1.233503	 0.013365	 2.772895	-0.377823	 168.658600	-158.048000	 13.194790	-32.098370	 6.203988	-22.093380	 1.882728	-15.515080	 63.701520	 8.059412	 1.158876	 26.646620	-2.658408	 174.739000	 11.472650	 17.760860	-2.405911	-29.382630	 6.405544	 6.217966	 76.221280	-2.625269	-1.285979	 28.332830	 2.709243	 3.840401	 4.825396	-16.061340	 6.543002	 7.705878	-4.532369	-5.100245	-8.262972	 15.405840	-111.823700	 6.678208	 93.077300	 16.615570	 48.228650	 8.716535	 13.320270	-0.522559	-4.985168	 0.508365	-32.022290	-25.561750	 1.624891	 5.343344	-0.321037	-5.936520	 14.320260	 1.597620	 5.039421	-2.333275	-0.306758	 3.146956	-6.854700	 1.095154	-1.231331	-6.901175	 8.818172	 122.539200	 10.522680	-96.286190	-5.768996	 43.376170	-2.372761	-8.205547	-0.199430	 5.015595	-36.992560	-14.043990	-53.166510	-2.693095	 6.051571	 0.884591	 12.785540	 25.976850	-5.918981	-8.519408	 15.621380	-0.684938
-0.011878	 1.234034	 0.015286	 2.526299	-0.922278	 166.502200	-157.601300	 13.072820	-34.673990	 6.269368	-22.302630	 1.020107	-17.237220	 63.627710	 10.065380	 1.156968	 26.620780	-2.657652	 174.893900	 12.570650	 16.886350	-2.454869	-29.481540	 5.402776	 1.766727	 75.741330	 1.649385	-1.284154	 28.308810	 2.708472	 4.844097	 3.879858	-21.011250	 6.688412	 8.951226	-4.888252	-4.691042	-10.184050	 15.276590	-110.991000	 6.797787	 93.161400	 15.186770	 49.869020	 11.026240	 15.722140	-0.546804	-7.945619	-0.782550	-39.332330	-27.987910	 2.270296	 3.331804	-0.269951	-5.929064	 14.770860	 1.646001	 5.071565	-1.616958	-0.290330	 3.123419	-6.872393	 1.231179	-1.204616	-7.442036	 9.712455	 121.980500	 10.612400	-96.225960	-5.121380	 43.289050	-2.197111	-10.101760	-0.199859	 7.993571	-44.285960	-17.219600	-51.248760	-2.927332	 6.783892	 0.881476	 12.968270	 27.911010	-6.414960	-8.527558	 17.204940	-0.785770
-0.012824	 1.234840	 0.017413	 2.220108	-1.538084	 164.083900	-157.139200	 12.886000	-37.516540	 6.308033	-22.426100	 0.045872	-19.093060	 63.495840	 12.233730	 1.154844	 26.592000	-2.656811	 175.152000	 13.762860	 15.789800	-2.454357	-29.476260	 4.385369	-2.895664	 75.068940	 6.059362	-1.282122	 28.282050	 2.707614	 5.851506	 2.735709	-26.372010	 6.971208	 10.467250	-5.394034	-4.221152	-12.316920	 14.943540	-110.063200	 6.932456	 93.253080	 13.695700	 51.579470	 13.546510	 18.422690	-0.575585	-11.181630	-2.677087	-46.891890	-31.145020	 2.990882	 1.090216	-0.186378	-5.921205	 15.272870	 1.699949	 5.107126	-0.818887	-0.272507	 3.097247	-6.892169	 1.382712	-1.160310	-8.020101	 10.658790	 121.357600	 10.711680	-96.157750	-4.731288	 42.938490	-1.767993	-12.173340	-0.199977	 11.252180	-51.537510	-20.806180	-48.967070	-3.188702	 7.599797	 0.881556	 13.198820	 30.065200	-6.987274	-8.533258	 18.969750	-0.898942
-0.014005	 1.235800	 0.019391	 1.847342	-2.174219	 161.520300	-156.702700	 12.634940	-40.487640	 6.333572	-22.507530	-0.986855	-21.042670	 63.346800	 14.492270	 1.152605	 26.561650	-2.655926	 175.465200	 14.962910	 14.586270	-2.444618	-29.378800	 3.324022	-7.363014	 74.240400	 10.237100	-1.279980	 28.253830	 2.706711	 6.755541	 1.471646	-31.564260	 7.086961	 12.092430	-5.797052	-3.585601	-14.498690	 14.376880	-109.085000	 7.075973	 93.347350	 12.316410	 53.129040	 16.056930	 21.159040	-0.601789	-14.497720	-4.449585	-53.999980	-34.224990	 3.754055	-1.271315	-0.067764	-5.913430	 15.802100	 1.756887	 5.144343	 0.022471	-0.254254	 3.069711	-6.913092	 1.542461	-1.097416	-8.607300	 11.599840	 120.700700	 10.815590	-96.084700	-4.478148	 42.422200	-1.196669	-14.303540	-0.200060	 14.593330	-57.913970	-24.921330	-46.053550	-3.464814	 8.459933	 0.885714	 13.475150	 32.333630	-7.615945	-8.535296	 20.830160	-1.019416
-0.015601	 1.236682	 0.020938	 1.376375	-2.809382	 158.738700	-156.284900	 12.320170	-43.676220	 6.388369	-22.681870	-2.092597	-23.279080	 63.247010	 17.010900	 1.150185	 26.528830	-2.654971	 175.773700	 16.196810	 13.237700	-2.434387	-29.275900	 2.183527	-11.637630	 73.282780	 14.225740	-1.277665	 28.223300	 2.705736	 7.500272	 0.108647	-36.322130	 6.701427	 13.679970	-5.768643	-2.649828	-16.655920	 13.497430	-108.026900	 7.232981	 93.446520	 11.144810	 54.489250	 18.511920	 23.707480	-0.613261	-17.948420	-4.260160	-60.578340	-35.554680	 4.585762	-3.820927	 0.096055	-5.905614	 16.374570	 1.818562	 5.184299	 0.932479	-0.235126	 3.039990	-6.935811	 1.715261	-1.011664	-9.218272	 12.550850	 119.989800	 10.927010	-96.004260	-4.049674	 41.855480	-0.659673	-16.526380	-0.200178	 18.066180	-62.955310	-30.108550	-42.034110	-3.764252	 9.390186	 0.894952	 13.816080	 34.781860	-8.329114	-8.532758	 22.841320	-1.151350
-0.018942	 1.237191	 0.021163	 0.786216	-3.514723	 155.291400	-155.723100	 11.943950	-47.588500	 6.601339	-23.355100	-2.437723	-24.746270	 63.734340	 18.468590	 1.146784	 26.482670	-2.653630	 176.104300	 17.609080	 11.484220	-2.412356	-29.203970	 0.685701	-16.361460	 72.035640	 18.796750	-1.275663	 28.196870	 2.704893	 8.144438	-1.416749	-41.124550	 6.073589	 15.153590	-5.408493	-1.529286	-18.737290	 12.251610	-106.593300	 7.201757	 93.504980	 10.003510	 55.626380	 20.529320	 26.277070	-0.611640	-21.803250	-2.730409	-66.227750	-35.675320	 5.534801	-6.690068	 0.385343	-5.897300	 17.040800	 1.890466	 5.230345	 1.989353	-0.213699	 2.998325	-6.932743	 1.966853	-0.973016	-9.782394	 13.906820	 118.913500	 11.072480	-95.837000	-3.092761	 41.100720	-0.464058	-19.033520	-0.200981	 21.940350	-68.943570	-37.020110	-37.494560	-4.153190	 10.604780	 0.920115	 14.349830	 38.051060	-9.348103	-8.521776	 25.448180	-1.325642
-0.025073	 1.237448	 0.018590	 0.253199	-4.272429	 151.649400	-154.989400	 11.566020	-51.649450	 7.003827	-24.608280	-0.867208	-23.182120	 65.305070	 16.362510	 1.142413	 26.423290	-2.651914	 176.438500	 18.946430	 9.652316	-2.406935	-28.999940	-1.180292	-20.615250	 70.536450	 23.254670	-1.275297	 28.191940	 2.704741	 8.718190	-2.820861	-45.564950	 6.266463	 16.120550	-5.529647	-0.902558	-20.088800	 11.072850	-104.844800	 6.711794	 93.453840	 10.183100	 56.220360	 19.886380	 26.505210	-0.515663	-25.247900	-4.747969	-68.657340	-40.011120	 6.362660	-9.134315	 0.802764	-5.890404	 17.653280	 1.956702	 5.272173	 2.956640	-0.194819	 2.944542	-6.867039	 2.305737	-1.099947	-10.025820	 15.796000	 117.393100	 11.236850	-95.526440	-1.790482	 39.760030	-0.971791	-21.272400	-0.202482	 25.353150	-78.431020	-43.526190	-35.448710	-4.597132	 12.003250	 0.970277	 15.129430	 41.968700	-10.693410	-8.497947	 28.420200	-1.530036
-0.033129	 1.236810	 0.014234	-0.479253	-4.971690	 147.451600	-154.232100	 11.027760	-56.281120	 7.585036	-26.372470	 0.866148	-21.645470	 67.269890	 14.258810	 1.137399	 26.355120	-2.649950	 176.629900	 20.508790	 7.496323	-2.411823	-29.049180	-3.294032	-24.671210	 68.864820	 27.672610	-1.274877	 28.186290	 2.704565	 9.084845	-4.123132	-48.825080	 5.625031	 16.599590	-4.805441	 0.088985	-20.866720	 9.381488	-102.839400	 6.147535	 93.413760	 11.996430	 56.867840	 17.755180	 23.645790	-0.273157	-28.869060	 2.867257	-69.349660	-36.973300	 7.344111	-11.933870	 1.330786	-5.883376	 18.356540	 2.032942	 5.319863	 4.067340	-0.173990	 2.882315	-6.791986	 2.694862	-1.242478	-10.263230	 17.901130	 115.645000	 11.415520	-95.164180	-0.298796	 37.625170	-1.588963	-23.604220	-0.204611	 28.868530	-85.300590	-51.309830	-31.643490	-5.111527	 13.608600	 1.041971	 16.256210	 46.450430	-12.449460	-8.454278	 31.834030	-1.774363
-0.044530	 1.234489	 0.007186	-1.325506	-5.479631	 142.563900	-153.433100	 10.250240	-61.554520	 8.442738	-28.875880	 3.289689	-18.947920	 69.982760	 10.858700	 1.132142	 26.283560	-2.647898	 176.857700	 22.311120	 4.773695	-2.464113	-29.574010	-5.404934	-27.839620	 67.306090	 31.399200	-1.276649	 28.209530	 2.705311	 9.479694	-4.921877	-50.480970	 4.794471	 16.760690	-3.777591	 1.138460	-20.804570	 7.219141	-100.638100	 5.307644	 93.331700	 8.569966	 55.966840	 18.766180	 25.845400	-0.271006	-32.331380	 11.811120	-65.526110	-29.953710	 8.126722	-14.151560	 1.821835	-5.878440	 18.920150	 2.094206	 5.357928	 4.959510	-0.157911	 2.825084	-6.663839	 3.143735	-1.404173	-10.431330	 20.123840	 113.074700	 11.382400	-93.577000	 8.728142	 33.674590	-3.405743	-40.748130	-0.692908	 32.011780	-75.107820	-59.798980	-19.465840	-5.605855	 15.130350	 1.130270	 17.568100	 50.530540	-14.320780	-8.396517	 34.991620	-2.011890
-0.059002	 1.229658	-0.003289	-2.014806	-5.503992	 137.983700	-152.820800	 9.277467	-66.379390	 9.567693	-31.977540	 6.286135	-14.585920	 73.267560	 5.755812	 1.128213	 26.230010	-2.646369	 176.923900	 23.995790	 1.857229	-2.596945	-30.881040	-6.773681	-28.998410	 66.661690	 33.477220	-1.282551	 28.287190	 2.707801	 9.821421	-4.733707	-49.944940	 4.405719	 16.279020	-3.102735	 1.775488	-19.677010	 5.323840	-98.790020	 4.165569	 93.174620	 4.525265	 53.418790	 18.326220	 27.482030	-0.268522	-34.929390	 15.930000	-56.478440	-26.421700	 8.130827	-14.344560	 1.953690	-5.877945	 18.981350	 2.100870	 5.362289	 5.062055	-0.156104	 2.798935	-6.465301	 3.563028	-1.555368	-10.448600	 21.926320	 109.661200	 10.777020	-89.930810	 12.915130	 29.729480	 3.661397	-54.035690	-0.986283	 34.256530	-48.193180	-65.056490	 6.932966	-5.872164	 15.933700	 1.196536	 18.270440	 52.361970	-15.270910	-8.362782	 36.482700	-2.128715
